<mxfile host="app.diagrams.net" modified="2020-11-06T05:47:47.306Z" agent="5.0 (Windows NT 10.0; Win64; x64) AppleWebKit/537.36 (KHTML, like Gecko) Chrome/86.0.4240.183 Safari/537.36" etag="kkxrc2eCfaoAQsc_R2vw" version="13.9.2" type="github">
  <diagram id="R_coL0oHHe2s7lLJRnec" name="Page-1">
    <mxGraphModel dx="1422" dy="-324" grid="1" gridSize="10" guides="1" tooltips="1" connect="1" arrows="1" fold="1" page="1" pageScale="1" pageWidth="850" pageHeight="1100" math="0" shadow="0">
      <root>
        <mxCell id="0" />
        <mxCell id="1" parent="0" />
        <mxCell id="Mn_MytF6m2y4Uh7aq5Jk-3" value="" style="edgeStyle=orthogonalEdgeStyle;rounded=0;orthogonalLoop=1;jettySize=auto;html=1;" edge="1" parent="1" source="Mn_MytF6m2y4Uh7aq5Jk-1">
          <mxGeometry relative="1" as="geometry">
            <mxPoint x="425" y="1760" as="targetPoint" />
          </mxGeometry>
        </mxCell>
        <mxCell id="Mn_MytF6m2y4Uh7aq5Jk-1" value="Main" style="strokeWidth=2;html=1;shape=mxgraph.flowchart.start_2;whiteSpace=wrap;" vertex="1" parent="1">
          <mxGeometry x="375" y="1560" width="100" height="100" as="geometry" />
        </mxCell>
        <mxCell id="Mn_MytF6m2y4Uh7aq5Jk-25" value="" style="edgeStyle=orthogonalEdgeStyle;rounded=0;orthogonalLoop=1;jettySize=auto;html=1;" edge="1" parent="1" target="Mn_MytF6m2y4Uh7aq5Jk-24">
          <mxGeometry relative="1" as="geometry">
            <mxPoint x="425" y="1670" as="sourcePoint" />
          </mxGeometry>
        </mxCell>
        <mxCell id="Mn_MytF6m2y4Uh7aq5Jk-27" value="" style="edgeStyle=orthogonalEdgeStyle;rounded=0;orthogonalLoop=1;jettySize=auto;html=1;" edge="1" parent="1" source="Mn_MytF6m2y4Uh7aq5Jk-24" target="Mn_MytF6m2y4Uh7aq5Jk-26">
          <mxGeometry relative="1" as="geometry" />
        </mxCell>
        <mxCell id="Mn_MytF6m2y4Uh7aq5Jk-24" value="int selection" style="whiteSpace=wrap;html=1;strokeWidth=2;" vertex="1" parent="1">
          <mxGeometry x="365" y="1750" width="120" height="60" as="geometry" />
        </mxCell>
        <mxCell id="Mn_MytF6m2y4Uh7aq5Jk-29" value="" style="edgeStyle=orthogonalEdgeStyle;rounded=0;orthogonalLoop=1;jettySize=auto;html=1;" edge="1" parent="1" source="Mn_MytF6m2y4Uh7aq5Jk-26" target="Mn_MytF6m2y4Uh7aq5Jk-28">
          <mxGeometry relative="1" as="geometry" />
        </mxCell>
        <mxCell id="Mn_MytF6m2y4Uh7aq5Jk-26" value="cout &amp;lt;&amp;lt; &quot;&amp;lt;&amp;lt;&amp;lt; MAIN MENU &amp;gt;&amp;gt;&amp;gt;&quot; &amp;lt;&amp;lt; endl;" style="whiteSpace=wrap;html=1;strokeWidth=2;" vertex="1" parent="1">
          <mxGeometry x="365" y="1890" width="120" height="60" as="geometry" />
        </mxCell>
        <mxCell id="Mn_MytF6m2y4Uh7aq5Jk-31" value="" style="edgeStyle=orthogonalEdgeStyle;rounded=0;orthogonalLoop=1;jettySize=auto;html=1;" edge="1" parent="1" source="Mn_MytF6m2y4Uh7aq5Jk-28" target="Mn_MytF6m2y4Uh7aq5Jk-30">
          <mxGeometry relative="1" as="geometry" />
        </mxCell>
        <mxCell id="Mn_MytF6m2y4Uh7aq5Jk-28" value="cout &amp;lt;&amp;lt; endl;" style="whiteSpace=wrap;html=1;strokeWidth=2;" vertex="1" parent="1">
          <mxGeometry x="365" y="2030" width="120" height="60" as="geometry" />
        </mxCell>
        <mxCell id="Mn_MytF6m2y4Uh7aq5Jk-33" value="" style="edgeStyle=orthogonalEdgeStyle;rounded=0;orthogonalLoop=1;jettySize=auto;html=1;" edge="1" parent="1" source="Mn_MytF6m2y4Uh7aq5Jk-30" target="Mn_MytF6m2y4Uh7aq5Jk-32">
          <mxGeometry relative="1" as="geometry" />
        </mxCell>
        <mxCell id="Mn_MytF6m2y4Uh7aq5Jk-30" value="cout &amp;lt;&amp;lt; &quot;1. Change Actions&quot; &amp;lt;&amp;lt; endl;" style="whiteSpace=wrap;html=1;strokeWidth=2;" vertex="1" parent="1">
          <mxGeometry x="365" y="2170" width="120" height="60" as="geometry" />
        </mxCell>
        <mxCell id="Mn_MytF6m2y4Uh7aq5Jk-35" value="" style="edgeStyle=orthogonalEdgeStyle;rounded=0;orthogonalLoop=1;jettySize=auto;html=1;" edge="1" parent="1" source="Mn_MytF6m2y4Uh7aq5Jk-32" target="Mn_MytF6m2y4Uh7aq5Jk-34">
          <mxGeometry relative="1" as="geometry" />
        </mxCell>
        <mxCell id="Mn_MytF6m2y4Uh7aq5Jk-32" value="cout &amp;lt;&amp;lt; &quot;2. Button Layout&quot; &amp;lt;&amp;lt; endl;" style="whiteSpace=wrap;html=1;strokeWidth=2;" vertex="1" parent="1">
          <mxGeometry x="365" y="2310" width="120" height="60" as="geometry" />
        </mxCell>
        <mxCell id="Mn_MytF6m2y4Uh7aq5Jk-37" value="" style="edgeStyle=orthogonalEdgeStyle;rounded=0;orthogonalLoop=1;jettySize=auto;html=1;" edge="1" parent="1" source="Mn_MytF6m2y4Uh7aq5Jk-34" target="Mn_MytF6m2y4Uh7aq5Jk-36">
          <mxGeometry relative="1" as="geometry" />
        </mxCell>
        <mxCell id="Mn_MytF6m2y4Uh7aq5Jk-34" value="cout &amp;lt;&amp;lt; &quot;3. Keybindings&quot; &amp;lt;&amp;lt; endl;" style="whiteSpace=wrap;html=1;strokeWidth=2;" vertex="1" parent="1">
          <mxGeometry x="365" y="2450" width="120" height="60" as="geometry" />
        </mxCell>
        <mxCell id="Mn_MytF6m2y4Uh7aq5Jk-39" value="" style="edgeStyle=orthogonalEdgeStyle;rounded=0;orthogonalLoop=1;jettySize=auto;html=1;" edge="1" parent="1" source="Mn_MytF6m2y4Uh7aq5Jk-36" target="Mn_MytF6m2y4Uh7aq5Jk-38">
          <mxGeometry relative="1" as="geometry" />
        </mxCell>
        <mxCell id="Mn_MytF6m2y4Uh7aq5Jk-36" value="cout &amp;lt;&amp;lt; &quot;4. OnEvent Scripts&quot; &amp;lt;&amp;lt; endl;" style="whiteSpace=wrap;html=1;strokeWidth=2;" vertex="1" parent="1">
          <mxGeometry x="365" y="2590" width="120" height="60" as="geometry" />
        </mxCell>
        <mxCell id="Mn_MytF6m2y4Uh7aq5Jk-41" value="" style="edgeStyle=orthogonalEdgeStyle;rounded=0;orthogonalLoop=1;jettySize=auto;html=1;" edge="1" parent="1" source="Mn_MytF6m2y4Uh7aq5Jk-38" target="Mn_MytF6m2y4Uh7aq5Jk-40">
          <mxGeometry relative="1" as="geometry" />
        </mxCell>
        <mxCell id="Mn_MytF6m2y4Uh7aq5Jk-38" value="cout &amp;lt;&amp;lt; &quot;5. Main Menu Bar&quot; &amp;lt;&amp;lt; endl;" style="whiteSpace=wrap;html=1;strokeWidth=2;" vertex="1" parent="1">
          <mxGeometry x="365" y="2730" width="120" height="60" as="geometry" />
        </mxCell>
        <mxCell id="Mn_MytF6m2y4Uh7aq5Jk-43" value="" style="edgeStyle=orthogonalEdgeStyle;rounded=0;orthogonalLoop=1;jettySize=auto;html=1;" edge="1" parent="1" source="Mn_MytF6m2y4Uh7aq5Jk-40" target="Mn_MytF6m2y4Uh7aq5Jk-42">
          <mxGeometry relative="1" as="geometry" />
        </mxCell>
        <mxCell id="Mn_MytF6m2y4Uh7aq5Jk-40" value="cout &amp;lt;&amp;lt; &quot;6. Misc Options&quot; &amp;lt;&amp;lt; endl;" style="whiteSpace=wrap;html=1;strokeWidth=2;" vertex="1" parent="1">
          <mxGeometry x="365" y="2870" width="120" height="60" as="geometry" />
        </mxCell>
        <mxCell id="Mn_MytF6m2y4Uh7aq5Jk-45" value="" style="edgeStyle=orthogonalEdgeStyle;rounded=0;orthogonalLoop=1;jettySize=auto;html=1;" edge="1" parent="1" source="Mn_MytF6m2y4Uh7aq5Jk-42" target="Mn_MytF6m2y4Uh7aq5Jk-44">
          <mxGeometry relative="1" as="geometry" />
        </mxCell>
        <mxCell id="Mn_MytF6m2y4Uh7aq5Jk-42" value="cout &amp;lt;&amp;lt; &quot;7. Unlock Dragging&quot; &amp;lt;&amp;lt; endl;" style="whiteSpace=wrap;html=1;strokeWidth=2;" vertex="1" parent="1">
          <mxGeometry x="365" y="3010" width="120" height="60" as="geometry" />
        </mxCell>
        <mxCell id="Mn_MytF6m2y4Uh7aq5Jk-47" value="" style="edgeStyle=orthogonalEdgeStyle;rounded=0;orthogonalLoop=1;jettySize=auto;html=1;" edge="1" parent="1" source="Mn_MytF6m2y4Uh7aq5Jk-44" target="Mn_MytF6m2y4Uh7aq5Jk-46">
          <mxGeometry relative="1" as="geometry" />
        </mxCell>
        <mxCell id="Mn_MytF6m2y4Uh7aq5Jk-44" value="cout &amp;lt;&amp;lt; &quot;8. Show Button IDs&quot; &amp;lt;&amp;lt; endl;" style="whiteSpace=wrap;html=1;strokeWidth=2;" vertex="1" parent="1">
          <mxGeometry x="365" y="3150" width="120" height="60" as="geometry" />
        </mxCell>
        <mxCell id="Mn_MytF6m2y4Uh7aq5Jk-49" value="" style="edgeStyle=orthogonalEdgeStyle;rounded=0;orthogonalLoop=1;jettySize=auto;html=1;" edge="1" parent="1" source="Mn_MytF6m2y4Uh7aq5Jk-46" target="Mn_MytF6m2y4Uh7aq5Jk-48">
          <mxGeometry relative="1" as="geometry" />
        </mxCell>
        <mxCell id="Mn_MytF6m2y4Uh7aq5Jk-46" value="cout &amp;lt;&amp;lt; &quot;9. Show Action IDs&quot; &amp;lt;&amp;lt; endl;" style="whiteSpace=wrap;html=1;strokeWidth=2;" vertex="1" parent="1">
          <mxGeometry x="365" y="3290" width="120" height="60" as="geometry" />
        </mxCell>
        <mxCell id="Mn_MytF6m2y4Uh7aq5Jk-51" value="" style="edgeStyle=orthogonalEdgeStyle;rounded=0;orthogonalLoop=1;jettySize=auto;html=1;" edge="1" parent="1" source="Mn_MytF6m2y4Uh7aq5Jk-48" target="Mn_MytF6m2y4Uh7aq5Jk-50">
          <mxGeometry relative="1" as="geometry" />
        </mxCell>
        <mxCell id="Mn_MytF6m2y4Uh7aq5Jk-48" value="cout &amp;lt;&amp;lt; &quot;10. COPY&amp;lt;&amp;lt; endl;" style="whiteSpace=wrap;html=1;strokeWidth=2;" vertex="1" parent="1">
          <mxGeometry x="365" y="3430" width="120" height="60" as="geometry" />
        </mxCell>
        <mxCell id="Mn_MytF6m2y4Uh7aq5Jk-53" value="" style="edgeStyle=orthogonalEdgeStyle;rounded=0;orthogonalLoop=1;jettySize=auto;html=1;" edge="1" parent="1" source="Mn_MytF6m2y4Uh7aq5Jk-50" target="Mn_MytF6m2y4Uh7aq5Jk-52">
          <mxGeometry relative="1" as="geometry" />
        </mxCell>
        <mxCell id="Mn_MytF6m2y4Uh7aq5Jk-50" value="cout &amp;lt;&amp;lt; &quot;11. PASTE&quot; &amp;lt;&amp;lt; endl;" style="whiteSpace=wrap;html=1;strokeWidth=2;" vertex="1" parent="1">
          <mxGeometry x="365" y="3570" width="120" height="60" as="geometry" />
        </mxCell>
        <mxCell id="Mn_MytF6m2y4Uh7aq5Jk-55" value="" style="edgeStyle=orthogonalEdgeStyle;rounded=0;orthogonalLoop=1;jettySize=auto;html=1;" edge="1" parent="1" source="Mn_MytF6m2y4Uh7aq5Jk-52" target="Mn_MytF6m2y4Uh7aq5Jk-54">
          <mxGeometry relative="1" as="geometry" />
        </mxCell>
        <mxCell id="Mn_MytF6m2y4Uh7aq5Jk-52" value="cout &amp;lt;&amp;lt; &quot;Select a number: &quot;;" style="whiteSpace=wrap;html=1;strokeWidth=2;" vertex="1" parent="1">
          <mxGeometry x="365" y="3710" width="120" height="60" as="geometry" />
        </mxCell>
        <mxCell id="Mn_MytF6m2y4Uh7aq5Jk-57" value="" style="edgeStyle=orthogonalEdgeStyle;rounded=0;orthogonalLoop=1;jettySize=auto;html=1;" edge="1" parent="1" source="Mn_MytF6m2y4Uh7aq5Jk-54" target="Mn_MytF6m2y4Uh7aq5Jk-56">
          <mxGeometry relative="1" as="geometry" />
        </mxCell>
        <mxCell id="Mn_MytF6m2y4Uh7aq5Jk-54" value="cin &amp;gt;&amp;gt; selection;" style="whiteSpace=wrap;html=1;strokeWidth=2;" vertex="1" parent="1">
          <mxGeometry x="365" y="3850" width="120" height="60" as="geometry" />
        </mxCell>
        <mxCell id="Mn_MytF6m2y4Uh7aq5Jk-61" value="y" style="edgeStyle=orthogonalEdgeStyle;rounded=0;orthogonalLoop=1;jettySize=auto;html=1;" edge="1" parent="1" source="Mn_MytF6m2y4Uh7aq5Jk-56" target="Mn_MytF6m2y4Uh7aq5Jk-60">
          <mxGeometry relative="1" as="geometry" />
        </mxCell>
        <mxCell id="Mn_MytF6m2y4Uh7aq5Jk-63" value="n" style="edgeStyle=orthogonalEdgeStyle;rounded=0;orthogonalLoop=1;jettySize=auto;html=1;" edge="1" parent="1" source="Mn_MytF6m2y4Uh7aq5Jk-56" target="Mn_MytF6m2y4Uh7aq5Jk-62">
          <mxGeometry relative="1" as="geometry" />
        </mxCell>
        <mxCell id="Mn_MytF6m2y4Uh7aq5Jk-56" value="if selection == 1" style="rhombus;whiteSpace=wrap;html=1;strokeWidth=2;" vertex="1" parent="1">
          <mxGeometry x="368" y="3980" width="115" height="80" as="geometry" />
        </mxCell>
        <mxCell id="Mn_MytF6m2y4Uh7aq5Jk-60" value="changeActions();" style="shape=process;whiteSpace=wrap;html=1;backgroundOutline=1;strokeWidth=2;" vertex="1" parent="1">
          <mxGeometry x="525" y="3990" width="120" height="60" as="geometry" />
        </mxCell>
        <mxCell id="Mn_MytF6m2y4Uh7aq5Jk-65" value="y" style="edgeStyle=orthogonalEdgeStyle;rounded=0;orthogonalLoop=1;jettySize=auto;html=1;" edge="1" parent="1" source="Mn_MytF6m2y4Uh7aq5Jk-62" target="Mn_MytF6m2y4Uh7aq5Jk-64">
          <mxGeometry relative="1" as="geometry" />
        </mxCell>
        <mxCell id="Mn_MytF6m2y4Uh7aq5Jk-68" value="n" style="edgeStyle=orthogonalEdgeStyle;rounded=0;orthogonalLoop=1;jettySize=auto;html=1;" edge="1" parent="1" source="Mn_MytF6m2y4Uh7aq5Jk-62" target="Mn_MytF6m2y4Uh7aq5Jk-67">
          <mxGeometry relative="1" as="geometry" />
        </mxCell>
        <mxCell id="Mn_MytF6m2y4Uh7aq5Jk-62" value="else if selection == 2" style="rhombus;whiteSpace=wrap;html=1;strokeWidth=2;" vertex="1" parent="1">
          <mxGeometry x="358" y="4140" width="135" height="80" as="geometry" />
        </mxCell>
        <mxCell id="Mn_MytF6m2y4Uh7aq5Jk-64" value="buttonLayout()" style="shape=process;whiteSpace=wrap;html=1;backgroundOutline=1;strokeWidth=2;" vertex="1" parent="1">
          <mxGeometry x="525" y="4150" width="120" height="60" as="geometry" />
        </mxCell>
        <mxCell id="Mn_MytF6m2y4Uh7aq5Jk-70" value="n" style="edgeStyle=orthogonalEdgeStyle;rounded=0;orthogonalLoop=1;jettySize=auto;html=1;" edge="1" parent="1" source="Mn_MytF6m2y4Uh7aq5Jk-67" target="Mn_MytF6m2y4Uh7aq5Jk-69">
          <mxGeometry relative="1" as="geometry" />
        </mxCell>
        <mxCell id="Mn_MytF6m2y4Uh7aq5Jk-94" value="y" style="edgeStyle=orthogonalEdgeStyle;rounded=0;orthogonalLoop=1;jettySize=auto;html=1;" edge="1" parent="1" source="Mn_MytF6m2y4Uh7aq5Jk-67" target="Mn_MytF6m2y4Uh7aq5Jk-93">
          <mxGeometry relative="1" as="geometry" />
        </mxCell>
        <mxCell id="Mn_MytF6m2y4Uh7aq5Jk-67" value="else if selection == 3" style="rhombus;whiteSpace=wrap;html=1;strokeWidth=2;" vertex="1" parent="1">
          <mxGeometry x="358" y="4300" width="135" height="80" as="geometry" />
        </mxCell>
        <mxCell id="Mn_MytF6m2y4Uh7aq5Jk-72" value="n" style="edgeStyle=orthogonalEdgeStyle;rounded=0;orthogonalLoop=1;jettySize=auto;html=1;" edge="1" parent="1" source="Mn_MytF6m2y4Uh7aq5Jk-69" target="Mn_MytF6m2y4Uh7aq5Jk-71">
          <mxGeometry relative="1" as="geometry" />
        </mxCell>
        <mxCell id="Mn_MytF6m2y4Uh7aq5Jk-96" value="y" style="edgeStyle=orthogonalEdgeStyle;rounded=0;orthogonalLoop=1;jettySize=auto;html=1;" edge="1" parent="1" source="Mn_MytF6m2y4Uh7aq5Jk-69" target="Mn_MytF6m2y4Uh7aq5Jk-95">
          <mxGeometry relative="1" as="geometry" />
        </mxCell>
        <mxCell id="Mn_MytF6m2y4Uh7aq5Jk-69" value="else if selection == 4" style="rhombus;whiteSpace=wrap;html=1;strokeWidth=2;" vertex="1" parent="1">
          <mxGeometry x="358" y="4460" width="135" height="80" as="geometry" />
        </mxCell>
        <mxCell id="Mn_MytF6m2y4Uh7aq5Jk-74" value="n" style="edgeStyle=orthogonalEdgeStyle;rounded=0;orthogonalLoop=1;jettySize=auto;html=1;" edge="1" parent="1" source="Mn_MytF6m2y4Uh7aq5Jk-71" target="Mn_MytF6m2y4Uh7aq5Jk-73">
          <mxGeometry relative="1" as="geometry" />
        </mxCell>
        <mxCell id="Mn_MytF6m2y4Uh7aq5Jk-98" value="y" style="edgeStyle=orthogonalEdgeStyle;rounded=0;orthogonalLoop=1;jettySize=auto;html=1;" edge="1" parent="1" source="Mn_MytF6m2y4Uh7aq5Jk-71" target="Mn_MytF6m2y4Uh7aq5Jk-97">
          <mxGeometry relative="1" as="geometry" />
        </mxCell>
        <mxCell id="Mn_MytF6m2y4Uh7aq5Jk-71" value="else if selection == 5" style="rhombus;whiteSpace=wrap;html=1;strokeWidth=2;" vertex="1" parent="1">
          <mxGeometry x="358" y="4620" width="135" height="80" as="geometry" />
        </mxCell>
        <mxCell id="Mn_MytF6m2y4Uh7aq5Jk-76" value="n" style="edgeStyle=orthogonalEdgeStyle;rounded=0;orthogonalLoop=1;jettySize=auto;html=1;" edge="1" parent="1" source="Mn_MytF6m2y4Uh7aq5Jk-73" target="Mn_MytF6m2y4Uh7aq5Jk-75">
          <mxGeometry relative="1" as="geometry" />
        </mxCell>
        <mxCell id="Mn_MytF6m2y4Uh7aq5Jk-100" value="y" style="edgeStyle=orthogonalEdgeStyle;rounded=0;orthogonalLoop=1;jettySize=auto;html=1;" edge="1" parent="1" source="Mn_MytF6m2y4Uh7aq5Jk-73" target="Mn_MytF6m2y4Uh7aq5Jk-99">
          <mxGeometry relative="1" as="geometry" />
        </mxCell>
        <mxCell id="Mn_MytF6m2y4Uh7aq5Jk-73" value="else if selection == 6" style="rhombus;whiteSpace=wrap;html=1;strokeWidth=2;" vertex="1" parent="1">
          <mxGeometry x="358" y="4780" width="135" height="80" as="geometry" />
        </mxCell>
        <mxCell id="Mn_MytF6m2y4Uh7aq5Jk-78" value="n" style="edgeStyle=orthogonalEdgeStyle;rounded=0;orthogonalLoop=1;jettySize=auto;html=1;" edge="1" parent="1" source="Mn_MytF6m2y4Uh7aq5Jk-75" target="Mn_MytF6m2y4Uh7aq5Jk-77">
          <mxGeometry relative="1" as="geometry" />
        </mxCell>
        <mxCell id="Mn_MytF6m2y4Uh7aq5Jk-102" value="y" style="edgeStyle=orthogonalEdgeStyle;rounded=0;orthogonalLoop=1;jettySize=auto;html=1;" edge="1" parent="1" source="Mn_MytF6m2y4Uh7aq5Jk-75" target="Mn_MytF6m2y4Uh7aq5Jk-101">
          <mxGeometry relative="1" as="geometry" />
        </mxCell>
        <mxCell id="Mn_MytF6m2y4Uh7aq5Jk-75" value="else if selection == 7" style="rhombus;whiteSpace=wrap;html=1;strokeWidth=2;" vertex="1" parent="1">
          <mxGeometry x="358" y="4940" width="135" height="80" as="geometry" />
        </mxCell>
        <mxCell id="Mn_MytF6m2y4Uh7aq5Jk-80" value="n" style="edgeStyle=orthogonalEdgeStyle;rounded=0;orthogonalLoop=1;jettySize=auto;html=1;" edge="1" parent="1" source="Mn_MytF6m2y4Uh7aq5Jk-77" target="Mn_MytF6m2y4Uh7aq5Jk-79">
          <mxGeometry relative="1" as="geometry" />
        </mxCell>
        <mxCell id="Mn_MytF6m2y4Uh7aq5Jk-104" value="y" style="edgeStyle=orthogonalEdgeStyle;rounded=0;orthogonalLoop=1;jettySize=auto;html=1;" edge="1" parent="1" source="Mn_MytF6m2y4Uh7aq5Jk-77" target="Mn_MytF6m2y4Uh7aq5Jk-103">
          <mxGeometry relative="1" as="geometry" />
        </mxCell>
        <mxCell id="Mn_MytF6m2y4Uh7aq5Jk-77" value="else if selection == 8" style="rhombus;whiteSpace=wrap;html=1;strokeWidth=2;" vertex="1" parent="1">
          <mxGeometry x="358" y="5100" width="135" height="80" as="geometry" />
        </mxCell>
        <mxCell id="Mn_MytF6m2y4Uh7aq5Jk-82" value="n" style="edgeStyle=orthogonalEdgeStyle;rounded=0;orthogonalLoop=1;jettySize=auto;html=1;" edge="1" parent="1" source="Mn_MytF6m2y4Uh7aq5Jk-79" target="Mn_MytF6m2y4Uh7aq5Jk-81">
          <mxGeometry relative="1" as="geometry" />
        </mxCell>
        <mxCell id="Mn_MytF6m2y4Uh7aq5Jk-106" value="y" style="edgeStyle=orthogonalEdgeStyle;rounded=0;orthogonalLoop=1;jettySize=auto;html=1;" edge="1" parent="1" source="Mn_MytF6m2y4Uh7aq5Jk-79" target="Mn_MytF6m2y4Uh7aq5Jk-105">
          <mxGeometry relative="1" as="geometry" />
        </mxCell>
        <mxCell id="Mn_MytF6m2y4Uh7aq5Jk-79" value="else if selection == 9" style="rhombus;whiteSpace=wrap;html=1;strokeWidth=2;" vertex="1" parent="1">
          <mxGeometry x="358" y="5260" width="135" height="80" as="geometry" />
        </mxCell>
        <mxCell id="Mn_MytF6m2y4Uh7aq5Jk-84" value="n" style="edgeStyle=orthogonalEdgeStyle;rounded=0;orthogonalLoop=1;jettySize=auto;html=1;" edge="1" parent="1" source="Mn_MytF6m2y4Uh7aq5Jk-81" target="Mn_MytF6m2y4Uh7aq5Jk-83">
          <mxGeometry relative="1" as="geometry" />
        </mxCell>
        <mxCell id="Mn_MytF6m2y4Uh7aq5Jk-108" value="y" style="edgeStyle=orthogonalEdgeStyle;rounded=0;orthogonalLoop=1;jettySize=auto;html=1;" edge="1" parent="1" source="Mn_MytF6m2y4Uh7aq5Jk-81" target="Mn_MytF6m2y4Uh7aq5Jk-107">
          <mxGeometry relative="1" as="geometry" />
        </mxCell>
        <mxCell id="Mn_MytF6m2y4Uh7aq5Jk-81" value="else if selection = =10" style="rhombus;whiteSpace=wrap;html=1;strokeWidth=2;" vertex="1" parent="1">
          <mxGeometry x="358" y="5420" width="135" height="80" as="geometry" />
        </mxCell>
        <mxCell id="Mn_MytF6m2y4Uh7aq5Jk-86" value="n" style="edgeStyle=orthogonalEdgeStyle;rounded=0;orthogonalLoop=1;jettySize=auto;html=1;" edge="1" parent="1" source="Mn_MytF6m2y4Uh7aq5Jk-83" target="Mn_MytF6m2y4Uh7aq5Jk-85">
          <mxGeometry relative="1" as="geometry" />
        </mxCell>
        <mxCell id="Mn_MytF6m2y4Uh7aq5Jk-110" value="y" style="edgeStyle=orthogonalEdgeStyle;rounded=0;orthogonalLoop=1;jettySize=auto;html=1;" edge="1" parent="1" source="Mn_MytF6m2y4Uh7aq5Jk-83" target="Mn_MytF6m2y4Uh7aq5Jk-109">
          <mxGeometry relative="1" as="geometry" />
        </mxCell>
        <mxCell id="Mn_MytF6m2y4Uh7aq5Jk-83" value="else if selection == 11" style="rhombus;whiteSpace=wrap;html=1;strokeWidth=2;" vertex="1" parent="1">
          <mxGeometry x="358" y="5580" width="135" height="80" as="geometry" />
        </mxCell>
        <mxCell id="Mn_MytF6m2y4Uh7aq5Jk-112" value="y" style="edgeStyle=orthogonalEdgeStyle;rounded=0;orthogonalLoop=1;jettySize=auto;html=1;" edge="1" parent="1" source="Mn_MytF6m2y4Uh7aq5Jk-85" target="Mn_MytF6m2y4Uh7aq5Jk-111">
          <mxGeometry relative="1" as="geometry" />
        </mxCell>
        <mxCell id="Mn_MytF6m2y4Uh7aq5Jk-85" value="else if selection != 0" style="rhombus;whiteSpace=wrap;html=1;strokeWidth=2;" vertex="1" parent="1">
          <mxGeometry x="358" y="5740" width="135" height="80" as="geometry" />
        </mxCell>
        <mxCell id="Mn_MytF6m2y4Uh7aq5Jk-90" value="y" style="edgeStyle=orthogonalEdgeStyle;rounded=0;orthogonalLoop=1;jettySize=auto;html=1;exitX=0;exitY=0.5;exitDx=0;exitDy=0;entryX=0;entryY=0.5;entryDx=0;entryDy=0;" edge="1" parent="1" source="Mn_MytF6m2y4Uh7aq5Jk-87" target="Mn_MytF6m2y4Uh7aq5Jk-26">
          <mxGeometry relative="1" as="geometry" />
        </mxCell>
        <mxCell id="Mn_MytF6m2y4Uh7aq5Jk-92" value="n" style="edgeStyle=orthogonalEdgeStyle;rounded=0;orthogonalLoop=1;jettySize=auto;html=1;" edge="1" parent="1" source="Mn_MytF6m2y4Uh7aq5Jk-87" target="Mn_MytF6m2y4Uh7aq5Jk-91">
          <mxGeometry relative="1" as="geometry" />
        </mxCell>
        <mxCell id="Mn_MytF6m2y4Uh7aq5Jk-87" value="while selection != 0" style="rhombus;whiteSpace=wrap;html=1;strokeWidth=2;" vertex="1" parent="1">
          <mxGeometry x="353" y="5900" width="144.5" height="80" as="geometry" />
        </mxCell>
        <mxCell id="Mn_MytF6m2y4Uh7aq5Jk-91" value="End" style="ellipse;whiteSpace=wrap;html=1;strokeWidth=2;" vertex="1" parent="1">
          <mxGeometry x="365.25" y="6060" width="120" height="80" as="geometry" />
        </mxCell>
        <mxCell id="Mn_MytF6m2y4Uh7aq5Jk-93" value="keyBindings()" style="shape=process;whiteSpace=wrap;html=1;backgroundOutline=1;strokeWidth=2;" vertex="1" parent="1">
          <mxGeometry x="525" y="4310" width="120" height="60" as="geometry" />
        </mxCell>
        <mxCell id="Mn_MytF6m2y4Uh7aq5Jk-95" value="onEventScripts()" style="shape=process;whiteSpace=wrap;html=1;backgroundOutline=1;strokeWidth=2;" vertex="1" parent="1">
          <mxGeometry x="525" y="4470" width="120" height="60" as="geometry" />
        </mxCell>
        <mxCell id="Mn_MytF6m2y4Uh7aq5Jk-97" value="mainMenuBar()" style="shape=process;whiteSpace=wrap;html=1;backgroundOutline=1;strokeWidth=2;" vertex="1" parent="1">
          <mxGeometry x="525" y="4630" width="120" height="60" as="geometry" />
        </mxCell>
        <mxCell id="Mn_MytF6m2y4Uh7aq5Jk-99" value="miscOptions()" style="shape=process;whiteSpace=wrap;html=1;backgroundOutline=1;strokeWidth=2;" vertex="1" parent="1">
          <mxGeometry x="525" y="4790" width="120" height="60" as="geometry" />
        </mxCell>
        <mxCell id="Mn_MytF6m2y4Uh7aq5Jk-101" value="unlockDragging()" style="shape=process;whiteSpace=wrap;html=1;backgroundOutline=1;strokeWidth=2;" vertex="1" parent="1">
          <mxGeometry x="525" y="4950" width="120" height="60" as="geometry" />
        </mxCell>
        <mxCell id="Mn_MytF6m2y4Uh7aq5Jk-103" value="showButtonIDs()" style="shape=process;whiteSpace=wrap;html=1;backgroundOutline=1;strokeWidth=2;" vertex="1" parent="1">
          <mxGeometry x="525" y="5110" width="120" height="60" as="geometry" />
        </mxCell>
        <mxCell id="Mn_MytF6m2y4Uh7aq5Jk-105" value="showActionIDs()" style="shape=process;whiteSpace=wrap;html=1;backgroundOutline=1;strokeWidth=2;" vertex="1" parent="1">
          <mxGeometry x="525" y="5270" width="120" height="60" as="geometry" />
        </mxCell>
        <mxCell id="Mn_MytF6m2y4Uh7aq5Jk-107" value="copy()" style="shape=process;whiteSpace=wrap;html=1;backgroundOutline=1;strokeWidth=2;" vertex="1" parent="1">
          <mxGeometry x="525" y="5430" width="120" height="60" as="geometry" />
        </mxCell>
        <mxCell id="Mn_MytF6m2y4Uh7aq5Jk-109" value="paste()" style="shape=process;whiteSpace=wrap;html=1;backgroundOutline=1;strokeWidth=2;" vertex="1" parent="1">
          <mxGeometry x="525" y="5590" width="120" height="60" as="geometry" />
        </mxCell>
        <mxCell id="Mn_MytF6m2y4Uh7aq5Jk-111" value="cout &amp;lt;&amp;lt; &quot;\nChoose a number between 0 and 11 inclusive!\n\n&quot;;" style="whiteSpace=wrap;html=1;strokeWidth=2;" vertex="1" parent="1">
          <mxGeometry x="525" y="5750" width="120" height="60" as="geometry" />
        </mxCell>
        <mxCell id="Mn_MytF6m2y4Uh7aq5Jk-114" style="edgeStyle=orthogonalEdgeStyle;rounded=0;orthogonalLoop=1;jettySize=auto;html=1;" edge="1" parent="1" source="Mn_MytF6m2y4Uh7aq5Jk-113" target="Mn_MytF6m2y4Uh7aq5Jk-87">
          <mxGeometry relative="1" as="geometry" />
        </mxCell>
        <mxCell id="Mn_MytF6m2y4Uh7aq5Jk-113" value="" style="ellipse;whiteSpace=wrap;html=1;aspect=fixed;" vertex="1" parent="1">
          <mxGeometry x="415" y="5860" width="20" height="20" as="geometry" />
        </mxCell>
      </root>
    </mxGraphModel>
  </diagram>
</mxfile>
